<svg xmlns="http://www.w3.org/2000/svg" viewBox="0 0 32 32" fill="none">
  <rect width="32" height="32" rx="8" fill="#1e293b"/>
  <path d="M11 11C11 8.23858 13.2386 6 16 6C18.7614 6 21 8.23858 21 11C21 13.7614 18.7614 16 16 16M11 11C11 13.7614 13.2386 16 16 16M11 11C11 12.1046 10.1046 13 9 13C7.89543 13 7 12.1046 7 11C7 9.89543 7.89543 9 9 9C10.1046 9 11 9.89543 11 11ZM21 11C21 12.1046 21.8954 13 23 13C24.1046 13 25 12.1046 25 11C25 9.89543 24.1046 9 23 9C21.8954 9 21 9.89543 21 11ZM16 16V22M16 22C16 24.2091 14.2091 26 12 26M16 22C16 24.2091 17.7909 26 20 26" stroke="#ffffff" stroke-width="2.5" stroke-linecap="round" stroke-linejoin="round"/>
</svg>